<?xml version="1.0" standalone="no"?>
<!DOCTYPE svg PUBLIC "-//W3C//DTD SVG 20010904//EN"
 "http://www.w3.org/TR/2001/REC-SVG-20010904/DTD/svg10.dtd">
<svg version="1.0" xmlns="http://www.w3.org/2000/svg"
 width="1024.000000pt" height="1024.000000pt" viewBox="0 0 1024.000000 1024.000000"
 preserveAspectRatio="xMidYMid meet">

<g transform="translate(0.000000,1024.000000) scale(0.100000,-0.100000)"
fill="#000000" stroke="none">
<path d="M4255 7724 c-122 -26 -124 -29 -104 -113 11 -51 5 -77 -22 -91 -15
-9 -28 -3 -70 30 -54 42 -58 44 -75 32 -15 -10 -104 -148 -104 -161 0 -6 26
-30 58 -54 48 -35 57 -46 54 -69 -3 -28 -25 -40 -104 -54 -25 -4 -38 -12 -38
-22 0 -29 32 -187 39 -195 7 -7 71 3 123 19 11 3 23 -4 33 -20 16 -24 15 -27
-20 -85 -32 -51 -36 -63 -25 -76 22 -26 150 -97 165 -91 7 2 30 30 50 61 33
52 38 56 63 50 33 -8 39 -17 47 -76 11 -81 18 -84 111 -64 44 9 88 23 98 31
18 13 18 16 3 76 -16 61 -15 64 4 83 20 20 20 20 79 -12 32 -18 65 -33 74 -33
14 0 106 136 106 158 0 6 -25 30 -55 52 -84 62 -76 88 40 125 78 26 79 26 98
6 23 -23 15 -41 -17 -41 -13 0 -33 -8 -45 -17 -19 -17 -20 -22 -8 -78 l12 -60
53 2 c57 3 60 -2 36 -48 -20 -40 -12 -57 43 -98 l47 -35 -68 -22 c-78 -27
-197 -82 -255 -118 -39 -25 -40 -25 -98 -9 -104 29 -104 29 -139 -62 l-32 -80
-45 -3 -45 -3 -18 48 c-36 100 -43 113 -60 113 -24 0 -196 -69 -214 -86 -12
-12 -10 -24 18 -90 l32 -77 -26 -34 c-14 -18 -30 -33 -37 -32 -7 0 -43 15 -82
33 -38 18 -75 31 -81 29 -10 -4 -104 -213 -104 -232 0 -5 38 -23 86 -41 l85
-32 -3 -45 -3 -45 -80 -32 c-69 -28 -80 -36 -77 -55 2 -26 68 -179 84 -198 16
-20 39 -16 113 18 l68 31 30 -31 30 -30 -33 -76 c-23 -53 -31 -82 -24 -91 5
-8 56 -34 114 -57 l105 -43 80 -130 c44 -72 105 -171 136 -220 49 -79 115
-206 140 -271 6 -16 17 -23 34 -23 23 0 25 3 19 23 -14 47 -116 241 -175 333
-34 53 -93 149 -131 213 l-70 116 22 68 21 68 47 -3 47 -3 23 -65 c13 -36 31
-73 40 -82 16 -16 21 -15 76 8 51 21 62 22 75 10 9 -7 30 -21 47 -29 24 -13
33 -25 37 -55 18 -108 151 -212 273 -212 l32 0 8 -72 c5 -40 7 -128 6 -195
l-3 -123 26 0 25 0 -1 138 c0 75 -4 163 -8 195 l-7 58 48 21 c63 27 117 88
152 170 16 37 35 69 42 72 8 3 31 -5 51 -17 31 -18 52 -22 118 -21 99 1 156
24 216 88 36 38 50 46 79 46 70 0 186 72 210 129 7 17 21 33 32 37 97 31 159
208 108 309 -11 22 -20 50 -20 64 0 54 -100 171 -146 171 -7 0 -18 17 -23 38
-6 21 -24 59 -41 84 -37 55 -108 91 -173 86 -37 -3 -46 1 -71 30 -35 39 -86
67 -141 75 -41 7 -156 -8 -187 -24 -10 -6 -32 -2 -63 12 -40 18 -53 19 -96 10
-67 -15 -122 -44 -169 -91 -22 -22 -56 -43 -78 -49 -22 -6 -73 -27 -115 -46
-42 -19 -82 -35 -90 -35 -16 0 -57 41 -57 57 0 6 14 43 32 83 26 58 30 75 20
90 -14 23 -10 26 86 74 95 48 232 92 340 111 110 19 307 19 429 -1 108 -17
278 -77 362 -127 182 -108 314 -308 376 -572 19 -79 20 -296 1 -359 l-14 -46
36 -43 c93 -111 185 -278 197 -359 6 -42 4 -50 -18 -72 -24 -24 -34 -26 -106
-26 -44 0 -83 -4 -86 -10 -3 -5 6 -30 20 -54 40 -68 43 -156 9 -273 -5 -20 -3
-23 19 -23 29 0 31 4 48 103 12 73 8 128 -16 190 -6 15 -1 17 41 17 94 0 153
66 140 158 -11 80 -101 250 -188 354 -40 48 -40 48 -29 98 18 83 13 263 -9
364 -64 287 -219 505 -440 616 -174 88 -350 130 -542 130 -87 0 -98 2 -98 18
0 9 -3 27 -6 40 -5 17 -2 22 13 22 11 0 28 -7 39 -15 29 -22 47 -18 75 18 53
66 54 73 13 111 -20 18 -34 39 -30 45 4 6 25 15 46 21 45 12 49 26 29 106
l-12 45 -47 -6 c-60 -8 -68 3 -38 54 26 46 21 57 -50 98 l-45 27 -37 -42 c-42
-47 -49 -44 -70 22 l-12 38 -57 -7 c-31 -4 -59 -9 -63 -12 -5 -2 -8 -29 -8
-59 0 -31 -4 -54 -10 -54 -6 0 -24 10 -41 22 l-31 23 -38 -41 -39 -42 -15 39
c-9 22 -16 45 -16 52 -1 34 -15 38 -75 22 -77 -20 -82 -19 -101 10 -15 23 -14
26 15 70 59 87 60 80 -18 129 -38 25 -72 49 -76 55 -14 23 -34 8 -75 -54 -38
-59 -45 -64 -69 -59 -38 10 -38 9 -45 66 -8 59 -21 89 -39 87 -7 -1 -39 -8
-72 -15z m69 -105 c12 -67 10 -66 93 -82 31 -6 35 -3 74 51 23 31 43 58 44 60
2 2 26 -11 54 -28 56 -35 56 -27 3 -110 l-29 -45 31 -48 31 -48 55 7 c98 12
92 14 106 -41 8 -29 9 -54 4 -59 -4 -4 -37 -16 -72 -25 l-63 -16 -8 -53 c-10
-61 -1 -76 66 -119 l38 -24 -32 -47 c-18 -26 -34 -49 -35 -51 -2 -2 -29 13
-60 32 l-57 36 -43 -30 c-24 -16 -45 -33 -49 -38 -3 -5 1 -37 9 -70 l14 -60
-31 -10 c-18 -6 -45 -11 -61 -13 -27 -3 -29 0 -46 60 -10 34 -20 65 -22 68
-10 9 -77 16 -100 11 -13 -4 -38 -29 -57 -56 l-34 -50 -46 31 c-25 17 -48 33
-50 34 -2 2 13 29 32 60 l36 57 -30 43 c-16 24 -34 46 -39 49 -8 5 -46 -2
-111 -21 -13 -3 -18 5 -23 33 -4 21 -9 50 -12 64 -5 24 -1 27 60 43 63 17 66
19 72 55 3 20 8 43 10 52 5 18 -38 59 -88 85 l-29 15 18 30 c10 16 27 40 38
54 l20 25 54 -35 c49 -31 56 -33 80 -21 14 8 36 25 49 38 21 23 21 28 11 81
-7 32 -9 60 -6 63 7 7 110 32 116 28 2 -2 9 -31 15 -65z m791 -221 c18 -38 24
-43 57 -46 34 -3 40 0 59 32 21 36 28 37 61 8 17 -14 17 -17 -3 -53 l-22 -37
23 -32 c21 -29 27 -32 62 -27 31 4 40 2 49 -15 13 -24 -1 -38 -37 -38 -28 0
-44 -20 -51 -63 -4 -30 -1 -37 31 -64 36 -29 36 -30 16 -48 -17 -15 -24 -16
-46 -7 -13 7 -36 12 -49 12 -28 0 -67 -33 -61 -52 3 -7 7 -28 10 -45 5 -32 4
-33 -28 -33 -31 0 -34 3 -40 35 -12 62 -88 78 -119 25 -21 -35 -24 -36 -56
-11 l-24 18 23 31 23 31 -20 33 c-18 30 -23 33 -61 30 -36 -3 -43 -1 -51 20
-11 30 -7 36 39 48 22 6 40 16 40 23 0 7 3 22 6 35 5 17 -2 30 -29 55 -35 31
-35 33 -18 55 16 22 18 22 46 8 39 -20 55 -20 84 3 20 16 23 24 19 59 -7 46
-3 52 26 52 15 0 27 -12 41 -42z m-13 -492 c4 -21 0 -27 -25 -36 -55 -19 -61
-12 -27 30 34 43 45 44 52 6z m-838 -320 l29 -77 76 3 76 3 30 77 c17 43 35
78 42 78 14 0 111 -36 131 -48 10 -7 4 -27 -23 -87 l-36 -78 48 -49 c26 -26
56 -48 68 -48 11 0 44 11 73 25 30 14 60 25 68 25 16 0 29 -24 54 -95 l19 -54
-67 -26 c-37 -14 -72 -29 -78 -33 -17 -11 -26 -138 -11 -150 7 -5 45 -22 85
-37 57 -22 71 -32 67 -44 -4 -9 -16 -40 -27 -68 -10 -29 -23 -55 -27 -57 -4
-3 -41 8 -81 25 l-72 31 -45 -44 c-68 -66 -69 -69 -32 -149 18 -38 30 -71 28
-74 -12 -11 -149 -62 -154 -56 -4 3 -22 39 -40 79 l-34 72 -69 0 -70 0 -27
-72 c-15 -40 -31 -77 -36 -82 -9 -10 -149 42 -149 55 0 6 14 42 30 81 l31 72
-48 48 c-26 26 -53 48 -61 48 -7 0 -45 -14 -84 -30 -39 -17 -72 -29 -73 -28
-9 13 -67 149 -64 151 2 1 38 16 79 32 l75 30 3 77 3 76 -73 27 c-40 15 -76
31 -81 35 -10 9 53 150 67 150 6 0 35 -11 64 -25 30 -14 64 -25 77 -25 27 0
105 82 105 110 0 10 -11 42 -25 72 -14 29 -25 58 -25 64 0 12 129 75 145 70 5
-1 23 -37 39 -80z m993 -22 c14 -9 29 -38 42 -81 17 -57 29 -75 72 -115 49
-45 51 -48 37 -70 -9 -13 -33 -27 -59 -33 -39 -9 -47 -17 -72 -63 -16 -29 -33
-52 -38 -52 -50 0 -105 77 -96 134 3 17 7 40 9 51 2 14 -3 20 -17 20 -32 0
-58 -66 -46 -113 21 -77 107 -149 162 -135 35 9 47 20 60 61 14 43 24 52 62
52 40 0 87 51 87 95 0 33 -29 73 -77 105 -15 10 -27 35 -36 78 l-15 63 27 11
c14 6 60 11 103 12 71 1 79 -1 115 -30 59 -47 88 -114 86 -201 -2 -57 1 -73
12 -73 8 0 19 9 25 19 13 25 13 122 0 155 -9 25 -8 26 26 26 76 0 134 -46 154
-121 9 -33 7 -47 -11 -89 -26 -62 -71 -93 -119 -84 -29 6 -31 5 -28 -17 3 -21
9 -24 49 -27 38 -2 52 2 78 24 18 14 41 45 53 68 11 22 22 42 23 44 8 9 65
-31 94 -63 26 -30 31 -44 29 -73 -3 -33 -6 -37 -53 -51 -41 -13 -53 -22 -68
-54 -15 -32 -20 -36 -37 -27 -26 14 -28 14 -45 -20 -22 -43 -59 -41 -86 5 -23
38 -29 41 -46 24 -16 -16 3 -64 34 -89 35 -27 85 -26 120 4 16 13 40 26 53 28
17 2 30 14 39 35 13 30 44 51 98 67 45 14 50 -103 8 -184 -16 -30 -47 -54 -85
-63 -19 -5 -29 -18 -40 -49 -17 -48 -80 -94 -143 -105 l-37 -6 0 60 c0 63 -14
90 -37 72 -8 -7 -13 -34 -13 -73 0 -57 -3 -66 -35 -103 -49 -58 -109 -85 -193
-86 -80 -1 -104 10 -159 71 -34 39 -44 45 -55 34 -11 -11 -10 -18 4 -41 20
-35 8 -51 -38 -51 -86 0 -186 68 -181 124 3 45 -29 48 -47 4 -29 -69 -93 -105
-200 -115 -52 -4 -85 -2 -106 7 l-32 13 26 24 c14 13 26 26 26 29 0 3 -15 39
-34 80 l-35 74 30 30 c17 16 36 30 43 30 7 0 42 -15 77 -34 70 -37 92 -36 103
9 6 23 11 25 60 25 40 0 62 6 90 25 47 32 82 25 141 -27 28 -25 51 -38 61 -34
11 4 12 10 5 23 -18 34 -79 85 -117 98 -35 12 -40 18 -44 52 -7 45 -50 135
-67 141 -25 7 -24 -26 1 -78 41 -85 17 -150 -57 -150 -33 0 -38 3 -32 18 4 9
12 34 18 55 13 49 -1 65 -86 93 l-62 21 -3 44 -3 44 81 37 c53 24 80 42 80 53
0 9 -13 50 -30 92 -16 41 -30 78 -30 83 0 13 41 24 84 21 38 -2 39 -1 33 28
-5 26 -2 33 26 53 44 31 127 59 157 52 14 -3 35 -12 47 -20z m-151 -1037 c17
-9 52 -21 77 -28 26 -6 47 -13 47 -16 0 -19 -56 -106 -85 -131 -43 -39 -71
-47 -155 -47 -88 0 -153 33 -197 99 -18 27 -33 58 -33 71 0 20 6 23 58 30 69
8 142 38 173 71 l23 24 30 -29 c17 -16 45 -36 62 -44z"/>
<path d="M4296 7385 c-114 -40 -149 -180 -65 -264 132 -133 339 33 244 196
-39 66 -108 92 -179 68z m121 -67 c28 -26 47 -81 38 -110 -11 -37 -56 -77 -92
-84 -67 -13 -133 39 -133 103 0 100 117 156 187 91z"/>
<path d="M5085 7271 c-33 -14 -56 -47 -62 -89 -11 -80 56 -142 130 -121 50 14
77 51 77 106 0 38 -5 50 -34 79 -35 35 -68 42 -111 25z m87 -58 c39 -35 8
-113 -46 -113 -25 0 -66 41 -66 67 0 22 47 63 71 63 12 0 31 -7 41 -17z"/>
<path d="M4294 6299 c-42 -12 -100 -78 -114 -130 -25 -94 22 -188 115 -230 55
-26 93 -23 156 9 45 22 59 36 82 82 24 47 27 63 22 104 -7 59 -23 92 -62 128
-49 46 -121 60 -199 37z m152 -60 c36 -22 53 -56 61 -119 6 -55 -23 -105 -77
-132 -121 -61 -250 60 -196 185 37 88 129 116 212 66z"/>
<path d="M5393 5925 c-7 -20 -10 -18 78 -62 100 -51 109 -71 74 -155 -33 -78
-35 -91 -12 -96 23 -5 77 108 77 160 0 51 -48 104 -127 140 -72 32 -81 34 -90
13z"/>
<path d="M5704 7140 c-57 -23 -72 -104 -28 -145 38 -35 87 -34 125 4 16 16 29
39 29 51 0 33 -26 75 -55 88 -30 14 -42 14 -71 2z m64 -52 c31 -31 -11 -88
-50 -67 -34 18 -17 79 22 79 9 0 21 -5 28 -12z"/>
<path d="M6073 7093 c-9 -3 -13 -26 -13 -64 0 -52 2 -59 20 -59 23 0 33 29 28
85 -3 38 -12 48 -35 38z"/>
<path d="M5910 6920 c0 -18 7 -20 65 -20 58 0 65 2 65 20 0 18 -7 20 -65 20
-58 0 -65 -2 -65 -20z"/>
<path d="M6132 6923 c3 -15 13 -18 63 -18 47 0 60 3 60 15 0 11 -15 16 -63 18
-57 3 -63 1 -60 -15z"/>
<path d="M6067 6873 c-13 -12 -7 -110 6 -122 22 -17 37 7 37 59 0 53 -22 85
-43 63z"/>
<path d="M3968 5370 c-73 -39 -112 -137 -83 -208 43 -100 136 -137 232 -91 63
31 97 92 91 165 -5 63 -37 104 -103 135 -51 24 -90 23 -137 -1z m127 -46 c57
-27 85 -95 60 -144 -27 -51 -63 -75 -115 -75 -58 0 -94 28 -111 86 -15 50 11
107 61 131 43 22 63 22 105 2z"/>
<path d="M4013 4193 c-25 -54 -76 -163 -114 -242 -38 -79 -69 -150 -69 -158 0
-9 15 -13 53 -13 l53 0 27 55 27 56 128 -3 127 -3 24 -52 24 -53 60 0 c52 0
58 2 53 18 -4 9 -57 124 -119 254 l-112 238 -58 0 -58 0 -46 -97z m147 -112
c22 -46 40 -87 40 -92 0 -5 -38 -9 -85 -9 -47 0 -85 2 -85 4 0 2 9 25 20 50
11 25 29 67 40 92 11 26 23 45 26 42 2 -3 22 -42 44 -87z"/>
<path d="M4579 4288 c-8 -25 -10 -144 -4 -305 l7 -203 54 0 54 0 2 166 3 166
140 -166 140 -166 53 0 52 0 0 255 0 255 -55 0 -55 0 0 -167 -1 -168 -37 41
c-20 22 -86 97 -145 167 l-108 127 -50 0 c-27 0 -49 -1 -50 -2z"/>
<path d="M5247 4282 c-5 -7 18 -62 167 -395 l49 -108 60 3 59 3 114 245 c63
134 114 248 114 252 0 4 -25 8 -56 8 -53 0 -55 -1 -69 -34 -54 -128 -154 -337
-161 -337 -5 0 -46 83 -90 183 l-81 183 -51 3 c-28 2 -53 -1 -55 -6z"/>
<path d="M6029 4183 c-28 -60 -79 -169 -115 -243 -35 -75 -64 -141 -64 -148 0
-8 18 -12 53 -12 l53 0 27 55 27 55 125 0 125 0 27 -55 27 -55 59 0 c32 0 57
4 55 9 -1 4 -54 119 -117 255 l-115 246 -59 0 -58 0 -50 -107z m151 -99 c22
-48 40 -91 40 -95 0 -5 -39 -9 -86 -9 -47 0 -84 4 -82 8 16 41 82 182 85 182
2 0 21 -39 43 -86z"/>
<path d="M4220 3415 l0 -25 905 0 905 0 0 25 0 25 -905 0 -905 0 0 -25z"/>
</g>
</svg>
