<svg xmlns="http://www.w3.org/2000/svg" width="1024" height="1024" viewBox="0 0 1024 1024">
<g>
<path d="M 465.79 536.83 C465.62,537.74 464.70,538.63 463.76,538.81 C462.51,539.05 461.38,537.67 459.65,533.82 C453.99,521.17 451.28,516.00 446.13,508.00 C443.12,503.33 437.13,493.65 432.81,486.50 L 424.95 473.51 L 414.26 469.39 C408.38,467.12 403.16,464.62 402.66,463.83 C402.04,462.85 402.91,459.90 405.39,454.53 L 409.03 446.66 L 406.76 444.25 C404.05,441.36 401.30,441.56 392.53,445.32 C388.63,446.99 386.16,447.55 385.42,446.93 C383.69,445.50 375.83,427.11 376.19,425.35 C376.36,424.50 379.86,422.42 384.00,420.72 C388.12,419.02 391.57,417.60 391.66,417.57 C391.74,417.53 392.12,415.45 392.49,412.95 L 393.17 408.40 L 385.12 405.60 C380.70,404.07 376.67,402.29 376.17,401.65 C374.94,400.09 384.05,378.61 386.11,378.22 C386.95,378.06 390.69,379.29 394.41,380.96 C398.14,382.63 401.73,384.00 402.41,384.00 C403.70,384.00 408.00,378.73 408.00,377.15 C408.00,376.63 406.62,372.96 404.92,368.98 C403.23,365.01 402.22,361.38 402.67,360.93 C403.86,359.75 423.44,352.00 425.23,352.00 C426.11,352.00 427.43,353.95 428.44,356.75 C432.81,368.92 432.96,369.13 437.28,368.80 C441.21,368.50 441.22,368.48 444.36,360.50 C447.97,351.31 448.74,350.91 458.23,353.39 L 463.91 354.87 L 474.21 349.53 C479.87,346.59 487.99,342.96 492.25,341.46 C496.51,339.97 500.00,338.35 500.00,337.87 C500.00,337.39 499.66,337.00 499.25,337.00 C498.84,337.00 496.53,335.29 494.12,333.22 L 489.74 329.44 L 491.83 325.34 C492.97,323.09 493.65,320.98 493.33,320.66 C493.00,320.34 490.87,320.33 488.58,320.64 C483.36,321.36 482.36,320.25 481.49,312.76 L 480.82 307.04 L 485.41 305.81 C490.44,304.47 491.04,303.25 488.00,300.50 C486.14,298.82 485.76,298.80 482.75,300.26 C480.96,301.12 477.59,302.34 475.27,302.95 C471.01,304.08 468.57,306.72 469.52,309.18 C469.80,309.91 472.24,312.02 474.95,313.87 C477.66,315.71 480.09,317.79 480.36,318.49 C480.88,319.85 475.09,330.12 471.76,333.72 L 469.71 335.94 L 463.40 332.41 C458.06,329.42 456.76,329.06 454.95,330.03 C453.04,331.05 452.88,331.71 453.50,335.84 C453.88,338.40 454.63,341.32 455.17,342.31 C457.05,345.84 453.48,348.09 442.28,350.44 C434.76,352.01 434.53,351.83 432.77,342.92 C431.51,336.56 431.47,336.50 428.00,336.27 C424.83,336.06 424.21,336.48 421.50,340.70 C416.91,347.82 416.43,347.90 407.94,342.73 C403.85,340.25 400.35,337.48 400.17,336.59 C399.99,335.70 401.23,332.72 402.92,329.97 C406.31,324.47 406.54,323.29 404.69,320.87 C403.56,319.37 402.92,319.36 397.16,320.77 C391.77,322.09 390.69,322.11 389.59,320.90 C387.98,319.16 384.62,301.94 385.71,301.00 C386.14,300.63 389.08,299.76 392.23,299.09 C398.40,297.77 398.43,297.75 399.32,293.98 C399.84,291.80 399.24,290.99 394.89,288.02 C392.11,286.13 389.47,283.87 389.00,283.00 C387.74,280.65 397.36,266.00 400.16,266.00 C401.30,266.00 404.45,267.63 407.16,269.62 C412.00,273.17 412.12,273.20 414.15,271.37 C415.93,269.75 416.12,268.82 415.50,264.50 C415.40,263.78 415.30,263.10 415.21,262.48 C414.62,258.56 414.33,256.58 415.16,255.39 C416.15,253.98 418.73,253.68 424.29,252.59 C430.65,251.36 434.43,251.03 435.06,251.66 C435.60,252.20 436.52,255.38 437.11,258.72 C438.15,264.63 439.23,265.91 443.21,265.99 C443.60,265.99 445.74,263.33 447.96,260.06 C450.18,256.80 452.39,253.88 452.87,253.58 C453.77,253.02 468.48,262.35 469.62,264.19 C469.96,264.75 468.38,267.89 466.11,271.19 L 461.98 277.17 L 464.00 279.99 L 466.01 282.82 L 471.25 281.42 C480.10,279.07 480.44,279.21 482.54,286.12 L 484.39 292.24 L 487.29 288.62 C490.46,284.66 492.78,284.15 496.49,286.59 C500.11,288.95 501.33,287.56 500.58,281.92 L 499.94 277.10 L 503.72 276.48 C505.80,276.14 508.74,275.63 510.27,275.35 C513.12,274.82 513.47,275.28 516.42,283.50 C517.07,285.31 517.50,285.08 520.88,281.13 L 524.62 276.75 L 528.06 278.49 C529.95,279.45 532.73,281.38 534.23,282.78 L 536.96 285.33 L 534.98 288.53 C531.58,294.03 532.20,295.24 538.22,294.84 L 543.43 294.50 L 544.74 300.36 C546.21,306.94 545.65,308.39 541.23,309.35 C535.55,310.59 535.23,311.62 539.41,315.24 C543.96,319.17 543.79,321.01 538.34,327.04 L 534.89 330.87 L 531.44 328.83 C526.65,326.01 524.93,326.83 526.33,331.28 L 527.40 334.72 L 539.45 335.40 C556.33,336.34 564.06,337.70 575.00,341.66 C590.77,347.36 598.58,351.79 607.26,359.94 C619.18,371.14 626.36,382.74 631.96,399.87 C636.89,414.97 638.39,438.59 634.97,447.57 C634.11,449.85 634.34,450.74 636.49,453.38 C647.58,467.00 655.90,482.78 656.71,491.77 C657.61,501.61 653.99,505.98 643.68,507.52 C638.91,508.24 638.90,508.25 639.70,511.37 C641.74,519.35 639.58,539.00 636.66,539.00 C633.81,539.00 633.22,536.93 634.69,532.17 C636.79,525.43 636.00,513.36 633.17,508.78 C629.44,502.73 630.02,501.84 637.26,502.59 C645.10,503.39 650.60,501.45 651.58,497.52 C653.58,489.58 645.98,473.58 631.77,455.78 L 629.03 452.35 L 630.50 445.43 C636.91,415.17 621.01,373.46 596.98,357.48 C584.44,349.15 569.51,343.71 553.00,341.47 C527.01,337.93 504.12,341.30 481.39,351.99 C470.69,357.02 469.15,358.27 470.94,360.43 C471.79,361.45 471.20,363.65 468.50,369.56 L 464.95 377.36 L 471.24 383.84 L 478.87 380.33 C483.07,378.40 488.43,376.22 490.80,375.49 C493.16,374.76 497.05,372.36 499.45,370.15 C508.10,362.18 519.92,358.84 526.83,362.41 C529.75,363.92 530.48,363.93 535.20,362.53 C541.18,360.76 550.82,360.55 556.31,362.07 C558.46,362.67 561.93,364.93 564.23,367.23 C567.85,370.85 568.92,371.35 573.41,371.54 C576.21,371.65 580.19,372.49 582.25,373.39 C586.55,375.26 591.47,381.50 593.19,387.23 C594.07,390.17 595.27,391.61 598.02,393.01 C604.53,396.33 610.95,405.32 611.03,411.22 C611.05,412.47 611.70,414.34 612.47,415.36 C613.25,416.39 614.17,419.54 614.52,422.36 C615.46,429.89 612.36,437.57 606.21,442.92 C603.62,445.17 600.90,447.65 600.16,448.42 C599.42,449.19 596.72,452.05 594.16,454.77 C589.39,459.83 579.36,464.74 576.23,463.54 C575.36,463.20 572.47,465.13 568.96,468.37 C565.42,471.66 561.28,474.40 558.39,475.38 C552.45,477.41 543.73,477.39 538.50,475.35 C533.21,473.28 529.94,473.16 528.94,475.00 C528.49,475.83 527.03,478.98 525.70,482.00 C522.72,488.76 517.17,494.57 511.24,497.11 C507.01,498.92 506.79,499.21 507.38,502.16 C508.55,507.99 509.18,530.48 508.30,534.50 C507.67,537.32 506.89,538.50 505.65,538.50 C504.04,538.50 503.86,536.88 503.58,519.88 C503.41,509.64 502.96,500.75 502.58,500.13 C502.20,499.51 499.78,499.00 497.21,499.00 C485.60,499.00 471.28,485.84 470.96,474.88 C470.94,474.12 468.65,472.44 465.89,471.14 L 460.86 468.78 L 455.30 470.90 C448.50,473.51 448.01,473.19 444.47,463.93 L 441.83 457.00 L 432.18 457.00 L 428.10 469.11 L 435.41 481.30 C439.43,488.01 445.23,497.39 448.30,502.16 C455.29,512.98 466.22,534.64 465.79,536.83 ZM 541.50 470.78 C549.81,473.73 558.52,471.46 565.75,464.46 C570.86,459.53 571.00,459.23 571.00,453.78 C571.00,446.91 571.66,445.00 574.06,445.00 C575.65,445.00 575.95,445.96 576.20,451.75 L 576.50 458.50 L 579.41 458.19 C586.02,457.48 595.00,450.39 595.00,445.89 C595.00,444.53 596.33,443.36 599.35,442.07 C606.86,438.85 610.84,431.11 609.53,422.32 C608.83,417.67 608.43,417.48 602.79,419.04 C600.15,419.77 598.26,421.28 596.22,424.29 C594.37,427.02 592.75,428.39 591.60,428.19 C590.64,428.02 588.78,429.03 587.47,430.44 C582.52,435.77 572.79,432.64 571.37,425.25 C570.83,422.42 571.02,422.00 572.85,422.00 C574.15,422.00 575.51,423.09 576.44,424.88 C578.74,429.34 581.05,429.67 584.14,425.99 C586.01,423.76 587.48,422.93 589.14,423.17 C590.99,423.43 591.81,422.80 592.94,420.23 C594.03,417.74 595.34,416.69 598.44,415.81 C603.08,414.49 606.00,412.34 606.00,410.25 C606.00,407.18 602.56,401.77 599.12,399.44 C594.42,396.24 592.51,396.36 591.02,399.95 C587.62,408.16 577.93,413.38 573.79,409.23 C571.09,406.53 572.30,404.78 576.35,405.54 C580.36,406.29 584.18,403.53 587.13,397.75 C592.07,388.06 584.19,376.00 572.92,376.00 C570.13,376.00 569.84,376.26 570.40,378.25 C572.07,384.24 572.14,388.72 570.62,392.37 C568.34,397.81 566.43,396.62 566.79,389.99 C567.21,382.48 564.60,374.99 559.99,370.49 C556.59,367.17 555.52,366.73 549.69,366.26 C543.14,365.74 537.58,366.34 535.22,367.84 C534.22,368.48 534.18,369.79 535.07,374.08 C536.02,378.70 536.94,380.17 541.25,384.05 C545.37,387.75 546.30,389.18 546.23,391.71 C546.09,396.43 543.39,400.88 540.23,401.57 C533.69,403.01 532.62,403.68 531.52,406.94 C530.21,410.83 526.67,414.00 523.64,414.00 C517.90,413.99 509.00,403.82 509.00,397.28 C509.00,392.72 511.56,388.00 514.03,388.00 C516.21,388.00 516.74,390.86 514.90,392.70 C514.19,393.41 514.05,395.36 514.52,398.13 C515.35,403.05 520.79,409.37 523.73,408.83 C524.70,408.64 526.65,406.25 528.06,403.51 C530.30,399.15 531.11,398.43 534.39,397.90 C538.97,397.16 542.46,393.99 541.60,391.37 C541.27,390.34 539.40,388.47 537.47,387.22 C533.78,384.84 531.76,381.35 530.00,374.30 C528.45,368.11 524.87,365.65 518.36,366.31 C510.01,367.16 500.80,372.85 503.17,375.70 C504.96,377.86 502.87,379.14 497.08,379.45 C494.25,379.60 491.71,379.96 491.42,380.24 C491.14,380.53 492.50,384.61 494.45,389.32 C496.40,394.03 498.00,398.38 498.00,398.99 C498.00,400.09 484.25,407.00 482.06,407.00 C481.29,407.00 480.99,408.59 481.20,411.66 L 481.50 416.32 L 487.00 418.16 C496.74,421.41 497.29,421.89 496.62,426.48 C496.29,428.69 495.74,431.51 495.40,432.75 C494.83,434.78 495.11,435.00 498.38,435.00 C505.60,435.00 507.79,429.35 504.00,420.50 C501.55,414.78 501.46,412.75 503.68,413.18 C506.50,413.72 510.08,422.10 510.93,430.14 C510.97,430.49 512.53,431.06 514.40,431.41 C520.68,432.59 528.34,440.68 525.93,443.58 C524.84,444.90 524.14,444.58 520.59,441.18 C518.34,439.03 514.97,436.75 513.11,436.13 C510.02,435.11 509.29,435.28 505.11,438.07 C501.14,440.70 499.91,441.04 496.25,440.50 C492.42,439.94 491.91,440.11 491.10,442.23 C489.20,447.24 487.69,447.43 480.42,443.57 C476.72,441.60 473.18,440.00 472.54,440.00 C471.90,440.00 470.09,441.34 468.53,442.97 L 465.68 445.94 L 468.84 452.80 C472.60,460.96 472.71,462.38 469.75,464.49 C467.54,466.07 467.54,466.13 469.44,467.55 C470.74,468.52 473.87,468.99 478.94,468.98 C490.13,468.95 494.76,466.33 502.07,455.90 C504.11,453.00 506.00,454.19 506.00,458.37 C506.00,463.66 512.59,468.58 522.05,470.35 C524.46,470.80 526.22,470.55 527.55,469.58 C529.43,468.20 529.44,468.04 527.75,465.17 C525.49,461.33 525.54,461.00 528.33,461.00 C529.81,461.00 531.17,461.94 532.05,463.58 C533.63,466.55 537.17,469.24 541.50,470.78 ZM 414.61 464.45 C417.85,465.77 421.16,466.76 421.97,466.66 C422.78,466.57 424.85,463.12 426.57,458.99 C428.29,454.87 430.21,451.55 430.85,451.60 C431.48,451.65 434.71,451.77 438.02,451.85 L 444.04 452.00 L 447.57 459.44 L 451.10 466.87 L 457.76 464.37 C461.42,462.99 464.77,461.64 465.21,461.37 C466.58,460.52 466.08,458.10 463.50,453.00 C462.12,450.29 461.00,447.21 461.00,446.17 C461.00,443.21 468.75,435.00 471.56,435.00 C472.87,435.00 476.49,436.12 479.60,437.50 C482.71,438.88 485.60,440.00 486.04,440.00 C486.91,440.00 492.45,426.12 491.83,425.49 C491.61,425.28 488.07,423.82 483.97,422.25 L 476.50 419.41 L 475.92 404.35 L 483.21 401.54 C487.22,399.99 490.82,398.44 491.22,398.09 C492.56,396.91 487.55,383.00 485.78,383.00 C485.29,383.00 481.72,384.35 477.84,386.00 C473.96,387.65 470.59,389.00 470.35,389.00 C469.18,389.00 460.00,379.55 460.00,378.34 C460.00,377.58 461.35,373.98 463.00,370.34 C464.65,366.70 466.00,363.37 466.00,362.95 C466.00,361.85 452.25,356.73 451.14,357.41 C450.63,357.73 449.91,359.22 449.53,360.74 C449.15,362.26 447.94,365.59 446.84,368.14 C444.70,373.12 442.92,374.00 435.00,374.00 C430.49,374.00 429.95,373.41 426.48,364.74 C425.00,361.02 423.49,357.80 423.13,357.58 C422.42,357.14 408.00,363.58 408.00,364.33 C408.00,364.57 409.38,367.72 411.07,371.33 C414.58,378.84 414.50,379.22 407.70,385.84 L 403.24 390.18 L 396.20 387.09 C392.33,385.39 388.88,384.00 388.54,384.00 C387.67,384.00 382.00,396.15 382.00,398.00 C382.01,398.95 384.87,400.61 389.75,402.50 L 397.50 405.50 L 397.16 412.50 C396.97,416.35 396.29,419.98 395.66,420.56 C394.55,421.57 386.41,425.25 382.77,426.38 C381.23,426.86 381.41,427.69 384.47,434.08 C386.36,438.01 388.08,441.41 388.30,441.63 C388.52,441.86 391.90,440.68 395.80,439.02 C399.70,437.36 403.53,436.00 404.32,436.00 C405.82,436.00 414.00,444.32 414.00,445.84 C414.00,446.33 412.65,450.01 410.99,454.02 C409.34,458.03 408.15,461.48 408.35,461.69 C408.56,461.89 411.38,463.14 414.61,464.45 ZM 436.90 340.46 C437.59,343.51 438.59,346.00 439.13,346.00 C441.32,346.00 449.07,343.70 449.56,342.90 C450.01,342.17 449.26,338.31 447.43,331.93 C446.95,330.26 454.67,324.00 457.22,324.00 C457.98,324.00 460.74,325.35 463.34,327.00 C465.94,328.65 468.20,330.00 468.37,330.00 C468.96,330.00 475.00,321.14 475.00,320.27 C475.00,319.77 473.21,318.36 471.02,317.13 C465.80,314.20 463.98,311.49 464.62,307.60 C465.86,300.06 465.63,300.33 471.89,299.10 C479.58,297.59 480.33,296.63 478.93,290.13 C478.33,287.31 477.60,285.00 477.31,285.00 C477.02,285.00 474.04,285.71 470.69,286.58 L 464.58 288.16 L 461.84 284.83 C456.44,278.26 456.40,277.85 460.49,271.45 L 464.20 265.66 L 461.91 263.93 C460.66,262.99 458.43,261.50 456.96,260.63 C454.28,259.05 454.28,259.06 449.56,265.13 L 444.84 271.20 L 440.17 270.53 C434.51,269.72 433.46,268.50 432.67,261.86 C432.34,259.04 431.87,256.53 431.63,256.29 C431.39,256.06 428.53,256.38 425.28,257.02 L 419.37 258.19 L 420.33 264.14 C421.26,269.92 421.21,270.17 418.40,273.13 C413.32,278.46 412.43,278.57 406.43,274.58 C403.46,272.61 400.84,271.00 400.60,271.00 C399.98,271.00 394.00,280.87 394.00,281.89 C394.00,282.37 395.26,283.28 396.80,283.92 C398.34,284.56 400.81,286.20 402.28,287.56 C404.68,289.78 404.89,290.53 404.35,294.77 C403.60,300.65 402.86,301.40 395.89,303.38 L 390.28 304.97 L 391.28 310.24 C391.83,313.13 392.56,315.82 392.90,316.22 C393.25,316.61 396.16,316.25 399.37,315.41 C402.59,314.57 405.30,314.02 405.41,314.19 C405.52,314.36 407.05,316.36 408.81,318.64 C410.56,320.92 412.00,323.20 412.00,323.70 C412.00,324.20 410.65,326.74 409.00,329.34 C407.35,331.94 406.00,334.42 406.00,334.84 C406.00,335.27 408.02,337.04 410.48,338.77 L 414.96 341.93 L 416.73 339.33 C417.70,337.89 419.70,335.44 421.17,333.87 C423.60,331.26 424.25,331.07 428.67,331.63 C434.45,332.36 435.29,333.26 436.90,340.46 ZM 469.50 612.51 L 468.50 646.50 L 463.96 646.80 C461.47,646.96 459.10,646.77 458.71,646.38 C458.32,645.99 458.00,634.27 458.00,620.33 L 458.00 595.00 L 463.10 595.00 C463.28,595.00 463.45,595.00 463.62,595.00 C464.67,594.99 465.50,594.99 466.29,595.15 C469.49,595.80 472.14,599.08 485.99,615.50 C491.09,621.55 495.66,626.65 496.13,626.83 C496.61,627.02 497.00,619.93 497.00,611.08 L 497.00 595.00 L 507.88 595.00 L 508.53 599.33 C508.88,601.71 509.02,613.30 508.84,625.08 L 508.50 646.50 L 503.73 646.81 C499.40,647.08 498.72,646.81 496.23,643.83 C494.73,642.03 488.10,634.24 481.50,626.53 ZM 515.60 334.08 C515.90,335.19 516.88,335.52 518.95,335.22 C521.81,334.80 521.87,334.67 521.33,330.15 C520.88,326.29 521.14,325.18 522.85,323.63 C524.88,321.80 527.21,321.76 532.60,323.48 C533.98,323.92 535.30,323.56 536.44,322.42 C538.08,320.77 538.01,320.56 535.09,318.27 C532.63,316.35 532.00,315.11 532.02,312.18 C532.03,307.50 532.70,306.60 537.00,305.40 C539.48,304.71 540.50,303.85 540.50,302.46 C540.50,300.85 539.70,300.45 536.00,300.20 C532.26,299.95 531.12,299.37 529.28,296.76 L 527.07 293.62 L 529.03 290.44 C531.58,286.32 531.52,285.61 528.43,283.97 C526.03,282.68 525.72,282.79 523.36,285.80 C521.44,288.25 520.08,289.00 517.55,289.00 C513.75,289.00 512.27,287.60 511.38,283.15 C510.70,279.76 510.64,279.72 507.25,280.63 C505.36,281.14 505.00,281.92 505.00,285.54 C505.00,288.99 504.48,290.26 502.40,291.90 L 499.81 293.94 L 495.81 291.90 C491.97,289.94 491.77,289.93 490.44,291.68 C488.48,294.27 488.63,294.82 492.05,297.70 C494.68,299.91 495.06,300.83 494.80,304.38 C494.51,308.35 494.34,308.53 490.25,309.39 C487.37,310.00 486.00,310.80 486.02,311.89 C486.04,314.82 487.49,315.86 491.98,316.18 C495.62,316.44 496.72,317.00 497.95,319.22 C499.34,321.70 499.31,322.21 497.58,325.13 L 495.69 328.33 L 498.06 330.25 L 500.42 332.16 L 502.97 329.03 C505.33,326.14 505.86,325.95 509.78,326.58 C513.30,327.14 514.13,327.71 514.61,329.88 C514.93,331.32 515.37,333.21 515.60,334.08 ZM 600.98 636.00 L 595.58 647.00 L 590.76 647.00 C587.71,647.00 585.75,646.52 585.44,645.69 C585.16,644.98 589.82,634.06 595.80,621.44 C601.77,608.82 606.95,597.71 607.30,596.75 C607.81,595.34 609.14,595.00 614.03,595.00 L 620.13 595.00 L 624.18 603.75 C626.41,608.56 631.58,619.65 635.67,628.39 C639.76,637.13 642.87,644.89 642.58,645.64 C642.24,646.53 640.38,647.00 637.24,647.00 L 632.42 647.00 L 627.02 636.00 ZM 396.31 641.25 C393.52,646.47 393.47,646.50 388.25,646.80 C384.45,647.02 383.00,646.74 382.99,645.80 C382.98,645.09 388.20,633.43 394.58,619.90 L 406.19 595.29 L 409.34 595.46 C418.99,595.97 418.71,595.87 420.06,599.25 C420.77,601.04 424.70,609.47 428.79,618.00 C429.27,618.99 429.73,619.95 430.17,620.87 C438.96,639.18 441.60,644.67 440.08,646.31 C439.42,647.02 438.01,647.01 435.98,647.00 C435.74,647.00 435.49,647.00 435.24,647.00 L 430.42 647.00 L 425.02 636.00 L 399.13 636.00 ZM 443.77 430.45 C436.66,433.42 429.98,431.99 423.66,426.13 C416.99,419.95 415.76,410.16 420.66,402.23 C424.67,395.75 428.90,393.50 437.07,393.50 C442.53,393.50 444.33,393.96 447.70,396.18 C460.31,404.52 458.01,424.50 443.77,430.45 ZM 569.14 623.07 L 558.23 646.50 L 552.59 646.80 L 546.94 647.10 L 545.37 643.35 C544.51,641.29 540.66,632.60 536.81,624.05 C532.97,615.50 528.74,606.08 527.41,603.13 C523.91,595.33 524.07,594.86 530.15,595.14 L 535.30 595.37 L 539.05 603.44 C543.74,613.55 547.10,621.02 549.99,627.75 C551.23,630.64 552.55,633.00 552.93,633.00 C553.31,633.00 554.04,631.93 554.56,630.61 C555.08,629.30 558.80,620.86 562.84,611.86 L 570.19 595.50 L 575.69 595.30 C580.95,595.12 581.16,595.21 580.62,597.38 C580.31,598.63 575.14,610.19 569.14,623.07 ZM 603.39 684.42 C602.85,685.84 593.96,686.00 513.06,686.00 C463.71,686.00 423.03,685.70 422.67,685.33 C422.30,684.97 422.00,683.62 422.00,682.33 L 422.00 680.00 L 513.00 680.00 C517.57,680.00 521.92,680.00 526.05,680.00 C593.23,679.99 603.47,679.99 604.02,682.30 C604.12,682.72 603.91,683.21 603.65,683.79 C603.57,683.99 603.48,684.20 603.39,684.42 ZM 410.54 518.12 C405.74,520.30 403.67,520.34 399.00,518.33 C391.51,515.10 387.50,508.54 388.25,500.75 C389.40,488.75 401.92,482.35 413.08,488.04 C425.49,494.37 424.00,512.01 410.54,518.12 ZM 490.00 492.34 C494.08,494.09 503.03,494.43 507.95,493.01 C512.08,491.83 518.44,485.90 521.08,480.79 C523.68,475.76 523.56,475.33 519.30,474.53 C514.75,473.67 509.28,470.95 505.16,467.48 L 502.05 464.86 L 498.77 467.36 C493.64,471.27 486.31,474.00 480.92,474.00 C475.26,474.00 474.87,474.89 477.91,480.79 C480.33,485.48 485.48,490.40 490.00,492.34 ZM 440.28 315.62 C433.98,318.32 427.49,316.56 422.57,310.81 C419.40,307.11 419.00,306.02 419.01,301.07 C419.01,294.45 421.12,290.69 426.70,287.31 C436.04,281.66 447.13,286.35 450.05,297.20 C451.95,304.24 447.57,312.51 440.28,315.62 ZM 431.45 426.04 C432.58,426.50 435.47,426.90 437.88,426.94 C441.76,426.99 442.77,426.50 446.63,422.63 C450.71,418.55 451.00,417.90 451.00,412.88 C450.99,403.52 445.71,398.00 436.80,398.00 C430.88,398.01 426.32,401.01 423.89,406.52 C422.46,409.74 422.10,412.01 422.59,414.61 C423.32,418.51 428.11,424.69 431.45,426.04 ZM 398.23 512.00 C402.16,514.39 406.05,514.54 410.09,512.45 C413.63,510.62 416.99,505.52 416.99,502.00 C416.99,498.80 413.75,493.47 410.86,491.93 C405.50,489.06 396.39,491.66 394.09,496.71 C391.53,502.32 393.35,509.02 398.23,512.00 ZM 430.50 311.05 C437.63,313.99 446.00,308.69 446.00,301.23 C446.00,290.14 432.19,285.44 425.62,294.29 C421.47,299.89 423.93,308.33 430.50,311.05 ZM 520.75 314.52 C516.43,319.16 512.54,319.85 508.00,316.79 C501.35,312.30 500.35,304.93 505.66,299.61 C507.69,297.58 509.26,297.00 512.70,297.00 C518.17,297.00 520.54,298.21 522.49,301.98 C524.94,306.72 524.40,310.60 520.75,314.52 ZM 581.52 323.67 C578.10,328.56 570.31,328.14 566.63,322.88 C564.60,319.99 564.57,317.73 566.51,313.99 C568.31,310.51 574.73,308.25 577.94,309.97 C582.71,312.52 584.50,319.41 581.52,323.67 ZM 558.23 457.43 C553.29,466.36 550.55,464.28 554.44,454.57 C555.85,451.04 557.00,447.50 557.00,446.69 C557.00,444.03 553.54,440.88 546.53,437.16 C542.72,435.15 539.46,432.99 539.26,432.37 C537.96,428.15 552.52,433.01 557.75,438.54 C560.58,441.53 561.00,442.65 560.98,447.24 C560.96,451.06 560.21,453.85 558.23,457.43 ZM 403.78 625.44 C404.08,625.75 407.86,626.00 412.17,626.00 C417.76,626.00 420.01,625.64 420.02,624.75 C420.05,623.03 412.66,607.09 411.82,607.04 C411.44,607.02 410.82,608.01 410.43,609.25 C410.04,610.49 408.26,614.51 406.47,618.19 C404.68,621.87 403.47,625.14 403.78,625.44 ZM 606.00 624.96 C606.00,626.58 620.94,626.32 621.57,624.68 C622.12,623.24 615.24,608.00 614.03,608.00 C613.22,608.00 606.00,623.25 606.00,624.96 ZM 509.22 312.44 C512.49,314.73 515.58,314.35 517.93,311.37 C520.63,307.93 520.54,306.45 517.45,303.36 C515.47,301.38 514.29,300.95 512.20,301.46 C506.85,302.75 505.02,309.50 509.22,312.44 ZM 603.96 333.54 C603.22,334.45 600.94,335.00 598.00,335.00 C593.21,335.00 590.17,333.15 591.47,331.04 C591.83,330.47 594.76,330.00 598.00,330.00 C604.16,330.00 606.00,331.09 603.96,333.54 ZM 571.57 321.43 C573.43,323.29 573.56,323.30 576.07,321.96 C579.33,320.22 578.01,314.00 574.37,314.00 C572.73,314.00 570.00,316.81 570.00,318.50 C570.00,319.25 570.71,320.56 571.57,321.43 ZM 610.80 343.09 C610.62,346.77 610.01,349.50 609.32,349.73 C607.44,350.35 605.86,346.30 606.19,341.71 C606.45,338.19 606.88,337.45 608.80,337.17 C611.01,336.86 611.09,337.08 610.80,343.09 ZM 625.25 333.33 C622.86,334.74 616.33,334.97 614.60,333.70 C611.51,331.44 613.63,330.00 620.06,330.00 C624.57,330.00 626.00,330.35 626.00,331.44 C626.00,332.23 625.66,333.08 625.25,333.33 ZM 611.00 320.38 C611.00,323.71 610.48,326.19 609.63,326.89 C607.43,328.72 606.32,326.14 606.78,320.25 C607.12,315.90 607.52,315.00 609.10,315.00 C610.73,315.00 611.00,315.76 611.00,320.38 ZM 505.15 334.66 L 502.79 338.29 L 506.11 337.63 C510.33,336.78 511.08,336.01 510.35,333.23 C509.51,330.03 507.85,330.49 505.15,334.66 Z" fill="rgb(37,37,37)"/>
<path d="M 0.00 512.00 L 0.00 0.00 L 512.00 0.00 L 1024.00 0.00 L 1024.00 512.00 L 1024.00 1024.00 L 512.00 1024.00 L 0.00 1024.00 L 0.00 512.00 ZM 603.39 684.42 C605.18,679.77 609.88,680.00 513.00,680.00 L 422.00 680.00 L 422.00 682.33 C422.00,683.62 422.30,684.97 422.67,685.33 C423.03,685.70 463.71,686.00 513.06,686.00 C593.96,686.00 602.85,685.84 603.39,684.42 ZM 396.31 641.25 L 399.13 636.00 L 412.07 636.00 L 425.02 636.00 L 427.72 641.50 L 430.42 647.00 L 435.24 647.00 C442.97,647.00 443.20,648.02 428.79,618.00 C424.70,609.47 420.77,601.04 420.06,599.25 C418.71,595.87 418.99,595.97 409.34,595.46 L 406.19 595.29 L 394.58 619.90 C388.20,633.43 382.98,645.09 382.99,645.80 C383.00,646.74 384.45,647.02 388.25,646.80 C393.47,646.50 393.52,646.47 396.31,641.25 ZM 469.00 629.50 L 469.50 612.51 L 481.50 626.53 C488.10,634.24 494.73,642.03 496.23,643.83 C498.72,646.81 499.40,647.08 503.73,646.81 L 508.50 646.50 L 508.84 625.08 C509.02,613.30 508.88,601.71 508.53,599.33 L 507.88 595.00 L 502.44 595.00 L 497.00 595.00 L 497.00 611.08 C497.00,619.93 496.61,627.02 496.13,626.83 C495.66,626.65 491.09,621.55 485.99,615.50 C468.13,594.32 468.89,595.00 463.10,595.00 L 458.00 595.00 L 458.00 620.33 C458.00,634.27 458.32,645.99 458.71,646.38 C459.10,646.77 461.47,646.96 463.96,646.80 L 468.50 646.50 L 469.00 629.50 ZM 569.14 623.07 C575.14,610.19 580.31,598.63 580.62,597.38 C581.16,595.21 580.95,595.12 575.69,595.30 L 570.19 595.50 L 562.84 611.86 C558.80,620.86 555.08,629.30 554.56,630.61 C554.04,631.93 553.31,633.00 552.93,633.00 C552.55,633.00 551.23,630.64 549.99,627.75 C547.10,621.02 543.74,613.55 539.05,603.44 L 535.30 595.37 L 530.15 595.14 C524.07,594.86 523.91,595.33 527.41,603.13 C528.74,606.08 532.97,615.50 536.81,624.05 C540.66,632.60 544.51,641.29 545.37,643.35 L 546.94 647.10 L 552.59 646.80 L 558.23 646.50 L 569.14 623.07 ZM 598.28 641.50 L 600.98 636.00 L 614.00 636.00 L 627.02 636.00 L 629.72 641.50 L 632.42 647.00 L 637.24 647.00 C640.38,647.00 642.24,646.53 642.58,645.64 C642.87,644.89 639.76,637.13 635.67,628.39 C631.58,619.65 626.41,608.56 624.18,603.75 L 620.13 595.00 L 614.03 595.00 C609.14,595.00 607.81,595.34 607.30,596.75 C606.95,597.71 601.77,608.82 595.80,621.44 C589.82,634.06 585.16,644.98 585.44,645.69 C585.75,646.52 587.71,647.00 590.76,647.00 L 595.58 647.00 L 598.28 641.50 ZM 465.79 536.83 C466.22,534.64 455.29,512.98 448.30,502.16 C445.23,497.39 439.43,488.01 435.41,481.30 L 428.10 469.11 L 430.14 463.05 L 432.18 457.00 L 437.00 457.00 L 441.83 457.00 L 444.47 463.93 C448.01,473.19 448.50,473.51 455.30,470.90 L 460.86 468.78 L 465.89 471.14 C468.65,472.44 470.94,474.12 470.96,474.88 C471.28,485.84 485.60,499.00 497.21,499.00 C499.78,499.00 502.20,499.51 502.58,500.13 C502.96,500.75 503.41,509.64 503.58,519.88 C503.86,536.88 504.04,538.50 505.65,538.50 C506.89,538.50 507.67,537.32 508.30,534.50 C509.18,530.48 508.55,507.99 507.38,502.16 C506.79,499.21 507.01,498.92 511.24,497.11 C517.17,494.57 522.72,488.76 525.70,482.00 C527.03,478.98 528.49,475.83 528.94,475.00 C529.94,473.16 533.21,473.28 538.50,475.35 C543.73,477.39 552.45,477.41 558.39,475.38 C561.28,474.40 565.42,471.66 568.96,468.37 C572.47,465.13 575.36,463.20 576.23,463.54 C579.36,464.74 589.39,459.83 594.16,454.77 C596.72,452.05 599.42,449.19 600.16,448.42 C600.90,447.65 603.62,445.17 606.21,442.92 C612.36,437.57 615.46,429.89 614.52,422.36 C614.17,419.54 613.25,416.39 612.47,415.36 C611.70,414.34 611.05,412.47 611.03,411.22 C610.95,405.32 604.53,396.33 598.02,393.01 C595.27,391.61 594.07,390.17 593.19,387.23 C591.47,381.50 586.55,375.26 582.25,373.39 C580.19,372.49 576.21,371.65 573.41,371.54 C568.92,371.35 567.85,370.85 564.23,367.23 C561.93,364.93 558.46,362.67 556.31,362.07 C550.82,360.55 541.18,360.76 535.20,362.53 C530.48,363.93 529.75,363.92 526.83,362.41 C519.92,358.84 508.10,362.18 499.45,370.15 C497.05,372.36 493.16,374.76 490.80,375.49 C488.43,376.22 483.07,378.40 478.87,380.33 L 471.24 383.84 L 468.10 380.60 L 464.95 377.36 L 468.50 369.56 C471.20,363.65 471.79,361.45 470.94,360.43 C469.15,358.27 470.69,357.02 481.39,351.99 C504.12,341.30 527.01,337.93 553.00,341.47 C569.51,343.71 584.44,349.15 596.98,357.48 C621.01,373.46 636.91,415.17 630.50,445.43 L 629.03 452.35 L 631.77 455.78 C645.98,473.58 653.58,489.58 651.58,497.52 C650.60,501.45 645.10,503.39 637.26,502.59 C630.02,501.84 629.44,502.73 633.17,508.78 C636.00,513.36 636.79,525.43 634.69,532.17 C633.22,536.93 633.81,539.00 636.66,539.00 C639.58,539.00 641.74,519.35 639.70,511.37 C638.90,508.25 638.91,508.24 643.68,507.52 C653.99,505.98 657.61,501.61 656.71,491.77 C655.90,482.78 647.58,467.00 636.49,453.38 C634.34,450.74 634.11,449.85 634.97,447.57 C638.39,438.59 636.89,414.97 631.96,399.87 C626.36,382.74 619.18,371.14 607.26,359.94 C598.58,351.79 590.77,347.36 575.00,341.66 C564.06,337.70 556.33,336.34 539.45,335.40 L 527.40 334.72 L 526.33 331.28 C524.93,326.83 526.65,326.01 531.44,328.83 L 534.89 330.87 L 538.34 327.04 C543.79,321.01 543.96,319.17 539.41,315.24 C535.23,311.62 535.55,310.59 541.23,309.35 C545.65,308.39 546.21,306.94 544.74,300.36 L 543.43 294.50 L 538.22 294.84 C532.20,295.24 531.58,294.03 534.98,288.53 L 536.96 285.33 L 534.23 282.78 C532.73,281.38 529.95,279.45 528.06,278.49 L 524.62 276.75 L 520.88 281.13 C517.50,285.08 517.07,285.31 516.42,283.50 C513.47,275.28 513.12,274.82 510.27,275.35 C508.74,275.63 505.80,276.14 503.72,276.48 L 499.94 277.10 L 500.58 281.92 C501.33,287.56 500.11,288.95 496.49,286.59 C492.78,284.15 490.46,284.66 487.29,288.62 L 484.39 292.24 L 482.54 286.12 C480.44,279.21 480.10,279.07 471.25,281.42 L 466.01 282.82 L 464.00 279.99 L 461.98 277.17 L 466.11 271.19 C468.38,267.89 469.96,264.75 469.62,264.19 C468.48,262.35 453.77,253.02 452.87,253.58 C452.39,253.88 450.18,256.80 447.96,260.06 C445.74,263.33 443.60,265.99 443.21,265.99 C439.23,265.91 438.15,264.63 437.11,258.72 C436.52,255.38 435.60,252.20 435.06,251.66 C434.43,251.03 430.65,251.36 424.29,252.59 C413.29,254.74 413.97,253.81 415.50,264.50 C416.12,268.82 415.93,269.75 414.15,271.37 C412.12,273.20 412.00,273.17 407.16,269.62 C404.45,267.63 401.30,266.00 400.16,266.00 C397.36,266.00 387.74,280.65 389.00,283.00 C389.47,283.87 392.11,286.13 394.89,288.02 C399.24,290.99 399.84,291.80 399.32,293.98 C398.43,297.75 398.40,297.77 392.23,299.09 C389.08,299.76 386.14,300.63 385.71,301.00 C384.62,301.94 387.98,319.16 389.59,320.90 C390.69,322.11 391.77,322.09 397.16,320.77 C402.92,319.36 403.56,319.37 404.69,320.87 C406.54,323.29 406.31,324.47 402.92,329.97 C401.23,332.72 399.99,335.70 400.17,336.59 C400.35,337.48 403.85,340.25 407.94,342.73 C416.43,347.90 416.91,347.82 421.50,340.70 C424.21,336.48 424.83,336.06 428.00,336.27 C431.47,336.50 431.51,336.56 432.77,342.92 C434.53,351.83 434.76,352.01 442.28,350.44 C453.48,348.09 457.05,345.84 455.17,342.31 C454.63,341.32 453.88,338.40 453.50,335.84 C452.88,331.71 453.04,331.05 454.95,330.03 C456.76,329.06 458.06,329.42 463.40,332.41 L 469.71 335.94 L 471.76 333.72 C475.09,330.12 480.88,319.85 480.36,318.49 C480.09,317.79 477.66,315.71 474.95,313.87 C472.24,312.02 469.80,309.91 469.52,309.18 C468.57,306.72 471.01,304.08 475.27,302.95 C477.59,302.34 480.96,301.12 482.75,300.26 C485.76,298.80 486.14,298.82 488.00,300.50 C491.04,303.25 490.44,304.47 485.41,305.81 L 480.82 307.04 L 481.49 312.76 C482.36,320.25 483.36,321.36 488.58,320.64 C490.87,320.33 493.00,320.34 493.33,320.66 C493.65,320.98 492.97,323.09 491.83,325.34 L 489.74 329.44 L 494.12 333.22 C496.53,335.29 498.84,337.00 499.25,337.00 C499.66,337.00 500.00,337.39 500.00,337.87 C500.00,338.35 496.51,339.97 492.25,341.46 C487.99,342.96 479.87,346.59 474.21,349.53 L 463.91 354.87 L 458.23 353.39 C448.74,350.91 447.97,351.31 444.36,360.50 C441.22,368.48 441.21,368.50 437.28,368.80 C432.96,369.13 432.81,368.92 428.44,356.75 C427.43,353.95 426.11,352.00 425.23,352.00 C423.44,352.00 403.86,359.75 402.67,360.93 C402.22,361.38 403.23,365.01 404.92,368.98 C406.62,372.96 408.00,376.63 408.00,377.15 C408.00,378.73 403.70,384.00 402.41,384.00 C401.73,384.00 398.14,382.63 394.41,380.96 C390.69,379.29 386.95,378.06 386.11,378.22 C384.05,378.61 374.94,400.09 376.17,401.65 C376.67,402.29 380.70,404.07 385.12,405.60 L 393.17 408.40 L 392.49 412.95 C392.12,415.45 391.74,417.53 391.66,417.57 C391.57,417.60 388.12,419.02 384.00,420.72 C379.86,422.42 376.36,424.50 376.19,425.35 C375.83,427.11 383.69,445.50 385.42,446.93 C386.16,447.55 388.63,446.99 392.53,445.32 C401.30,441.56 404.05,441.36 406.76,444.25 L 409.03 446.66 L 405.39 454.53 C402.91,459.90 402.04,462.85 402.66,463.83 C403.16,464.62 408.38,467.12 414.26,469.39 L 424.95 473.51 L 432.81 486.50 C437.13,493.65 443.12,503.33 446.13,508.00 C451.28,516.00 453.99,521.17 459.65,533.82 C461.38,537.67 462.51,539.05 463.76,538.81 C464.70,538.63 465.62,537.74 465.79,536.83 ZM 410.54 518.12 C424.00,512.01 425.49,494.37 413.08,488.04 C401.92,482.35 389.40,488.75 388.25,500.75 C387.50,508.54 391.51,515.10 399.00,518.33 C403.67,520.34 405.74,520.30 410.54,518.12 ZM 610.80 343.09 C611.09,337.08 611.01,336.86 608.80,337.17 C606.88,337.45 606.45,338.19 606.19,341.71 C605.86,346.30 607.44,350.35 609.32,349.73 C610.01,349.50 610.62,346.77 610.80,343.09 ZM 603.96 333.54 C606.00,331.09 604.16,330.00 598.00,330.00 C594.76,330.00 591.83,330.47 591.47,331.04 C590.17,333.15 593.21,335.00 598.00,335.00 C600.94,335.00 603.22,334.45 603.96,333.54 ZM 625.25 333.33 C625.66,333.08 626.00,332.23 626.00,331.44 C626.00,330.35 624.57,330.00 620.06,330.00 C613.63,330.00 611.51,331.44 614.60,333.70 C616.33,334.97 622.86,334.74 625.25,333.33 ZM 581.52 323.67 C584.50,319.41 582.71,312.52 577.94,309.97 C574.73,308.25 568.31,310.51 566.51,313.99 C564.57,317.73 564.60,319.99 566.63,322.88 C570.31,328.14 578.10,328.56 581.52,323.67 ZM 611.00 320.38 C611.00,315.76 610.73,315.00 609.10,315.00 C607.52,315.00 607.12,315.90 606.78,320.25 C606.32,326.14 607.43,328.72 609.63,326.89 C610.48,326.19 611.00,323.71 611.00,320.38 ZM 403.78 625.44 C403.47,625.14 404.68,621.87 406.47,618.19 C408.26,614.51 410.04,610.49 410.43,609.25 C410.82,608.01 411.44,607.02 411.82,607.04 C412.66,607.09 420.05,623.03 420.02,624.75 C420.01,625.64 417.76,626.00 412.17,626.00 C407.86,626.00 404.08,625.75 403.78,625.44 ZM 606.00 624.96 C606.00,623.25 613.22,608.00 614.03,608.00 C615.24,608.00 622.12,623.24 621.57,624.68 C620.94,626.32 606.00,626.58 606.00,624.96 ZM 490.00 492.34 C485.48,490.40 480.33,485.48 477.91,480.79 C474.87,474.89 475.26,474.00 480.92,474.00 C486.31,474.00 493.64,471.27 498.77,467.36 L 502.05 464.86 L 505.16 467.48 C509.28,470.95 514.75,473.67 519.30,474.53 C523.56,475.33 523.68,475.76 521.08,480.79 C518.44,485.90 512.08,491.83 507.95,493.01 C503.03,494.43 494.08,494.09 490.00,492.34 ZM 541.50 470.78 C537.17,469.24 533.63,466.55 532.05,463.58 C531.17,461.94 529.81,461.00 528.33,461.00 C525.54,461.00 525.49,461.33 527.75,465.17 C529.44,468.04 529.43,468.20 527.55,469.58 C526.22,470.55 524.46,470.80 522.05,470.35 C512.59,468.58 506.00,463.66 506.00,458.37 C506.00,454.19 504.11,453.00 502.07,455.90 C494.76,466.33 490.13,468.95 478.94,468.98 C473.87,468.99 470.74,468.52 469.44,467.55 C467.54,466.13 467.54,466.07 469.75,464.49 C472.71,462.38 472.60,460.96 468.84,452.80 L 465.68 445.94 L 468.53 442.97 C470.09,441.34 471.90,440.00 472.54,440.00 C473.18,440.00 476.72,441.60 480.42,443.57 C487.69,447.43 489.20,447.24 491.10,442.23 C491.91,440.11 492.42,439.94 496.25,440.50 C499.91,441.04 501.14,440.70 505.11,438.07 C509.29,435.28 510.02,435.11 513.11,436.13 C514.97,436.75 518.34,439.03 520.59,441.18 C524.14,444.58 524.84,444.90 525.93,443.58 C528.34,440.68 520.68,432.59 514.40,431.41 C512.53,431.06 510.97,430.49 510.93,430.14 C510.08,422.10 506.50,413.72 503.68,413.18 C501.46,412.75 501.55,414.78 504.00,420.50 C507.79,429.35 505.60,435.00 498.38,435.00 C495.11,435.00 494.83,434.78 495.40,432.75 C495.74,431.51 496.29,428.69 496.62,426.48 C497.29,421.89 496.74,421.41 487.00,418.16 L 481.50 416.32 L 481.20 411.66 C480.99,408.59 481.29,407.00 482.06,407.00 C484.25,407.00 498.00,400.09 498.00,398.99 C498.00,398.38 496.40,394.03 494.45,389.32 C492.50,384.61 491.14,380.53 491.42,380.24 C491.71,379.96 494.25,379.60 497.08,379.45 C502.87,379.14 504.96,377.86 503.17,375.70 C500.80,372.85 510.01,367.16 518.36,366.31 C524.87,365.65 528.45,368.11 530.00,374.30 C531.76,381.35 533.78,384.84 537.47,387.22 C539.40,388.47 541.27,390.34 541.60,391.37 C542.46,393.99 538.97,397.16 534.39,397.90 C531.11,398.43 530.30,399.15 528.06,403.51 C526.65,406.25 524.70,408.64 523.73,408.83 C520.79,409.37 515.35,403.05 514.52,398.13 C514.05,395.36 514.19,393.41 514.90,392.70 C516.74,390.86 516.21,388.00 514.03,388.00 C511.56,388.00 509.00,392.72 509.00,397.28 C509.00,403.82 517.90,413.99 523.64,414.00 C526.67,414.00 530.21,410.83 531.52,406.94 C532.62,403.68 533.69,403.01 540.23,401.57 C543.39,400.88 546.09,396.43 546.23,391.71 C546.30,389.18 545.37,387.75 541.25,384.05 C536.94,380.17 536.02,378.70 535.07,374.08 C534.18,369.79 534.22,368.48 535.22,367.84 C537.58,366.34 543.14,365.74 549.69,366.26 C555.52,366.73 556.59,367.17 559.99,370.49 C564.60,374.99 567.21,382.48 566.79,389.99 C566.43,396.62 568.34,397.81 570.62,392.37 C572.14,388.72 572.07,384.24 570.40,378.25 C569.84,376.26 570.13,376.00 572.92,376.00 C584.19,376.00 592.07,388.06 587.13,397.75 C584.18,403.53 580.36,406.29 576.35,405.54 C572.30,404.78 571.09,406.53 573.79,409.23 C577.93,413.38 587.62,408.16 591.02,399.95 C592.51,396.36 594.42,396.24 599.12,399.44 C602.56,401.77 606.00,407.18 606.00,410.25 C606.00,412.34 603.08,414.49 598.44,415.81 C595.34,416.69 594.03,417.74 592.94,420.23 C591.81,422.80 590.99,423.43 589.14,423.17 C587.48,422.93 586.01,423.76 584.14,425.99 C581.05,429.67 578.74,429.34 576.44,424.88 C575.51,423.09 574.15,422.00 572.85,422.00 C571.02,422.00 570.83,422.42 571.37,425.25 C572.79,432.64 582.52,435.77 587.47,430.44 C588.78,429.03 590.64,428.02 591.60,428.19 C592.75,428.39 594.37,427.02 596.22,424.29 C598.26,421.28 600.15,419.77 602.79,419.04 C608.43,417.48 608.83,417.67 609.53,422.32 C610.84,431.11 606.86,438.85 599.35,442.07 C596.33,443.36 595.00,444.53 595.00,445.89 C595.00,450.39 586.02,457.48 579.41,458.19 L 576.50 458.50 L 576.20 451.75 C575.95,445.96 575.65,445.00 574.06,445.00 C571.66,445.00 571.00,446.91 571.00,453.78 C571.00,459.23 570.86,459.53 565.75,464.46 C558.52,471.46 549.81,473.73 541.50,470.78 ZM 558.23 457.43 C560.21,453.85 560.96,451.06 560.98,447.24 C561.00,442.65 560.58,441.53 557.75,438.54 C552.52,433.01 537.96,428.15 539.26,432.37 C539.46,432.99 542.72,435.15 546.53,437.16 C553.54,440.88 557.00,444.03 557.00,446.69 C557.00,447.50 555.85,451.04 554.44,454.57 C550.55,464.28 553.29,466.36 558.23,457.43 ZM 414.61 464.45 C411.38,463.14 408.56,461.89 408.35,461.69 C408.15,461.48 409.34,458.03 410.99,454.02 C412.65,450.01 414.00,446.33 414.00,445.84 C414.00,444.32 405.82,436.00 404.32,436.00 C403.53,436.00 399.70,437.36 395.80,439.02 C391.90,440.68 388.52,441.86 388.30,441.63 C388.08,441.41 386.36,438.01 384.47,434.08 C381.41,427.69 381.23,426.86 382.77,426.38 C386.41,425.25 394.55,421.57 395.66,420.56 C396.29,419.98 396.97,416.35 397.16,412.50 L 397.50 405.50 L 389.75 402.50 C384.87,400.61 382.01,398.95 382.00,398.00 C382.00,396.15 387.67,384.00 388.54,384.00 C388.88,384.00 392.33,385.39 396.20,387.09 L 403.24 390.18 L 407.70 385.84 C414.50,379.22 414.58,378.84 411.07,371.33 C409.38,367.72 408.00,364.57 408.00,364.33 C408.00,363.58 422.42,357.14 423.13,357.58 C423.49,357.80 425.00,361.02 426.48,364.74 C429.95,373.41 430.49,374.00 435.00,374.00 C442.92,374.00 444.70,373.12 446.84,368.14 C447.94,365.59 449.15,362.26 449.53,360.74 C449.91,359.22 450.63,357.73 451.14,357.41 C452.25,356.73 466.00,361.85 466.00,362.95 C466.00,363.37 464.65,366.70 463.00,370.34 C461.35,373.98 460.00,377.58 460.00,378.34 C460.00,379.55 469.18,389.00 470.35,389.00 C470.59,389.00 473.96,387.65 477.84,386.00 C481.72,384.35 485.29,383.00 485.78,383.00 C487.55,383.00 492.56,396.91 491.22,398.09 C490.82,398.44 487.22,399.99 483.21,401.54 L 475.92 404.35 L 476.21 411.88 L 476.50 419.41 L 483.97 422.25 C488.07,423.82 491.61,425.28 491.83,425.49 C492.45,426.12 486.91,440.00 486.04,440.00 C485.60,440.00 482.71,438.88 479.60,437.50 C476.49,436.12 472.87,435.00 471.56,435.00 C468.75,435.00 461.00,443.21 461.00,446.17 C461.00,447.21 462.12,450.29 463.50,453.00 C466.08,458.10 466.58,460.52 465.21,461.37 C464.77,461.64 461.42,462.99 457.76,464.37 L 451.10 466.87 L 447.57 459.44 L 444.04 452.00 L 438.02 451.85 C434.71,451.77 431.48,451.65 430.85,451.60 C430.21,451.55 428.29,454.87 426.57,458.99 C424.85,463.12 422.78,466.57 421.97,466.66 C421.16,466.76 417.85,465.77 414.61,464.45 ZM 443.77 430.45 C458.01,424.50 460.31,404.52 447.70,396.18 C444.33,393.96 442.53,393.50 437.07,393.50 C428.90,393.50 424.67,395.75 420.66,402.23 C415.76,410.16 416.99,419.95 423.66,426.13 C429.98,431.99 436.66,433.42 443.77,430.45 ZM 436.90 340.46 C435.29,333.26 434.45,332.36 428.67,331.63 C424.25,331.07 423.60,331.26 421.17,333.87 C419.70,335.44 417.70,337.89 416.73,339.33 L 414.96 341.93 L 410.48 338.77 C408.02,337.04 406.00,335.27 406.00,334.84 C406.00,334.42 407.35,331.94 409.00,329.34 C410.65,326.74 412.00,324.20 412.00,323.70 C412.00,323.20 410.56,320.92 408.81,318.64 C407.05,316.36 405.52,314.36 405.41,314.19 C405.30,314.02 402.59,314.57 399.37,315.41 C396.16,316.25 393.25,316.61 392.90,316.22 C392.56,315.82 391.83,313.13 391.28,310.24 L 390.28 304.97 L 395.89 303.38 C402.86,301.40 403.60,300.65 404.35,294.77 C404.89,290.53 404.68,289.78 402.28,287.56 C400.81,286.20 398.34,284.56 396.80,283.92 C395.26,283.28 394.00,282.37 394.00,281.89 C394.00,280.87 399.98,271.00 400.60,271.00 C400.84,271.00 403.46,272.61 406.43,274.58 C412.43,278.57 413.32,278.46 418.40,273.13 C421.21,270.17 421.26,269.92 420.33,264.14 L 419.37 258.19 L 425.28 257.02 C428.53,256.38 431.39,256.06 431.63,256.29 C431.87,256.53 432.34,259.04 432.67,261.86 C433.46,268.50 434.51,269.72 440.17,270.53 L 444.84 271.20 L 449.56 265.13 C454.28,259.06 454.28,259.05 456.96,260.63 C458.43,261.50 460.66,262.99 461.91,263.93 L 464.20 265.66 L 460.49 271.45 C456.40,277.85 456.44,278.26 461.84,284.83 L 464.58 288.16 L 470.69 286.58 C474.04,285.71 477.02,285.00 477.31,285.00 C477.60,285.00 478.33,287.31 478.93,290.13 C480.33,296.63 479.58,297.59 471.89,299.10 C465.63,300.33 465.86,300.06 464.62,307.60 C463.98,311.49 465.80,314.20 471.02,317.13 C473.21,318.36 475.00,319.77 475.00,320.27 C475.00,321.14 468.96,330.00 468.37,330.00 C468.20,330.00 465.94,328.65 463.34,327.00 C460.74,325.35 457.98,324.00 457.22,324.00 C454.67,324.00 446.95,330.26 447.43,331.93 C449.26,338.31 450.01,342.17 449.56,342.90 C449.07,343.70 441.32,346.00 439.13,346.00 C438.59,346.00 437.59,343.51 436.90,340.46 ZM 440.28 315.62 C447.57,312.51 451.95,304.24 450.05,297.20 C447.13,286.35 436.04,281.66 426.70,287.31 C421.12,290.69 419.01,294.45 419.01,301.07 C419.00,306.02 419.40,307.11 422.57,310.81 C427.49,316.56 433.98,318.32 440.28,315.62 ZM 505.15 334.66 C507.85,330.49 509.51,330.03 510.35,333.23 C511.08,336.01 510.33,336.78 506.11,337.63 L 502.79 338.29 L 505.15 334.66 ZM 515.60 334.08 C515.37,333.21 514.93,331.32 514.61,329.88 C514.13,327.71 513.30,327.14 509.78,326.58 C505.86,325.95 505.33,326.14 502.97,329.03 L 500.42 332.16 L 498.06 330.25 L 495.69 328.33 L 497.58 325.13 C499.31,322.21 499.34,321.70 497.95,319.22 C496.72,317.00 495.62,316.44 491.98,316.18 C487.49,315.86 486.04,314.82 486.02,311.89 C486.00,310.80 487.37,310.00 490.25,309.39 C494.34,308.53 494.51,308.35 494.80,304.38 C495.06,300.83 494.68,299.91 492.05,297.70 C488.63,294.82 488.48,294.27 490.44,291.68 C491.77,289.93 491.97,289.94 495.81,291.90 L 499.81 293.94 L 502.40 291.90 C504.48,290.26 505.00,288.99 505.00,285.54 C505.00,281.92 505.36,281.14 507.25,280.63 C510.64,279.72 510.70,279.76 511.38,283.15 C512.27,287.60 513.75,289.00 517.55,289.00 C520.08,289.00 521.44,288.25 523.36,285.80 C525.72,282.79 526.03,282.68 528.43,283.97 C531.52,285.61 531.58,286.32 529.03,290.44 L 527.07 293.62 L 529.28 296.76 C531.12,299.37 532.26,299.95 536.00,300.20 C539.70,300.45 540.50,300.85 540.50,302.46 C540.50,303.85 539.48,304.71 537.00,305.40 C532.70,306.60 532.03,307.50 532.02,312.18 C532.00,315.11 532.63,316.35 535.09,318.27 C538.01,320.56 538.08,320.77 536.44,322.42 C535.30,323.56 533.98,323.92 532.60,323.48 C527.21,321.76 524.88,321.80 522.85,323.63 C521.14,325.18 520.88,326.29 521.33,330.15 C521.87,334.67 521.81,334.80 518.95,335.22 C516.88,335.52 515.90,335.19 515.60,334.08 ZM 520.75 314.52 C524.40,310.60 524.94,306.72 522.49,301.98 C520.54,298.21 518.17,297.00 512.70,297.00 C509.26,297.00 507.69,297.58 505.66,299.61 C500.35,304.93 501.35,312.30 508.00,316.79 C512.54,319.85 516.43,319.16 520.75,314.52 ZM 398.23 512.00 C393.35,509.02 391.53,502.32 394.09,496.71 C396.39,491.66 405.50,489.06 410.86,491.93 C413.75,493.47 416.99,498.80 416.99,502.00 C416.99,505.52 413.63,510.62 410.09,512.45 C406.05,514.54 402.16,514.39 398.23,512.00 ZM 571.57 321.43 C570.71,320.56 570.00,319.25 570.00,318.50 C570.00,316.81 572.73,314.00 574.37,314.00 C578.01,314.00 579.33,320.22 576.07,321.96 C573.56,323.30 573.43,323.29 571.57,321.43 ZM 431.45 426.04 C428.11,424.69 423.32,418.51 422.59,414.61 C422.10,412.01 422.46,409.74 423.89,406.52 C426.32,401.01 430.88,398.01 436.80,398.00 C445.71,398.00 450.99,403.52 451.00,412.88 C451.00,417.90 450.71,418.55 446.63,422.63 C442.77,426.50 441.76,426.99 437.88,426.94 C435.47,426.90 432.58,426.50 431.45,426.04 ZM 430.50 311.05 C423.93,308.33 421.47,299.89 425.62,294.29 C432.19,285.44 446.00,290.14 446.00,301.23 C446.00,308.69 437.63,313.99 430.50,311.05 ZM 509.22 312.44 C505.02,309.50 506.85,302.75 512.20,301.46 C514.29,300.95 515.47,301.38 517.45,303.36 C520.54,306.45 520.63,307.93 517.93,311.37 C515.58,314.35 512.49,314.73 509.22,312.44 Z" fill="rgb(243,243,243)"/>
</g>
</svg>